<?xml version="1.0" encoding="UTF-8" standalone="no"?>
<!-- Created with Inkscape (http://www.inkscape.org/) -->
<svg
   xmlns:svg="http://www.w3.org/2000/svg"
   xmlns="http://www.w3.org/2000/svg"
   version="1.0"
   width="172.5"
   height="66.669998"
   id="svg2773">
  <defs
     id="defs2775">
    <clipPath
       id="clipPath91">
      <path
         d="M 0.029999,841.98 L 595.05,841.98 L 595.05,0 L 0.029999,0 L 0.029999,841.98 z"
         id="path93" />
    </clipPath>
    <clipPath
       id="clipPath85">
      <path
         d="M -14.311,856.118 L 609.311,856.118 L 609.311,-14.118 L -14.311,-14.118 L -14.311,856.118 z"
         id="path87" />
    </clipPath>
  </defs>
  <g
     transform="translate(194.69759,22.217014)"
     id="layer1">
    <g
       transform="translate(7.49875,6.5006241)"
       id="g2870">
      <path
         d="M -179.76259,-22.217014 C -188.01134,-22.217014 -194.69759,-15.528264 -194.69759,-7.282014 C -194.69759,0.967986 -188.01134,7.654236 -179.76259,7.654236 C -171.51134,7.654236 -164.82384,0.967986 -164.82384,-7.282014 C -164.82384,-15.528264 -171.51134,-22.217014 -179.76259,-22.217014 M -179.76259,-11.799514 C -181.23884,-11.799514 -182.43634,-10.717014 -182.43634,-9.380764 C -182.43634,-8.958264 -182.31759,-8.563264 -182.10759,-8.218264 C -183.53509,-8.622014 -184.38759,-9.299514 -184.45134,-10.369514 C -184.56509,-12.353264 -182.64509,-14.408264 -179.76259,-14.408264 C -176.87759,-14.408264 -174.95884,-12.353264 -175.07634,-10.369514 C -175.13759,-9.299514 -175.98759,-8.622014 -177.41759,-8.218264 C -177.20759,-8.563264 -177.08884,-8.958264 -177.08884,-9.380764 C -177.08884,-10.717014 -178.28759,-11.799514 -179.76259,-11.799514 z M -173.12634,-10.999514 C -173.10884,-11.190764 -173.09634,-11.384514 -173.09634,-11.582014 C -173.09634,-14.754514 -176.08259,-17.325764 -179.76259,-17.325764 C -183.44509,-17.325764 -186.42634,-14.754514 -186.42634,-11.582014 C -186.42634,-11.384514 -186.41759,-11.190764 -186.39384,-10.999514 C -187.03509,-11.894514 -187.40259,-12.927014 -187.40259,-14.028264 C -187.40259,-17.403264 -183.98384,-20.134514 -179.76259,-20.134514 C -175.54134,-20.134514 -172.12009,-17.403264 -172.12009,-14.028264 C -172.12009,-12.927014 -172.48759,-11.894514 -173.12634,-10.999514"
         id="path97"
         style="fill:#ae6117;fill-opacity:1;fill-rule:nonzero;stroke:none" />
      <path
         d="M -160.44134,-7.269514 L -156.16384,-7.269514 L -156.16384,3.262986 L -156.08009,3.262986 C -155.15759,1.875486 -153.81259,1.080486 -152.13634,1.080486 C -150.08134,1.080486 -149.03134,1.875486 -148.32134,3.009236 C -147.77509,3.889236 -147.65009,5.105486 -147.65009,8.166736 L -147.65009,16.264236 C -147.65009,18.614236 -147.86009,19.912986 -148.35884,20.836736 C -149.11759,22.222986 -150.37884,22.849236 -152.09634,22.849236 C -154.23259,22.849236 -155.07134,21.884236 -156.16384,20.669236 L -156.16384,22.600486 L -160.44134,22.600486 L -160.44134,-7.269514 M -151.92759,7.876736 C -151.92759,6.531736 -152.38884,5.356736 -154.02634,5.356736 C -155.24134,5.356736 -156.16384,6.325486 -156.16384,7.665486 L -156.16384,15.931736 C -156.16384,17.482986 -155.32384,18.569236 -154.02634,18.569236 C -152.55634,18.569236 -151.92759,17.397986 -151.92759,15.674236 L -151.92759,7.876736"
         id="path99"
         style="fill:#005b7f;fill-opacity:1;fill-rule:nonzero;stroke:none" />
      <path
         d="M -144.12759,1.330486 L -139.84509,1.330486 L -139.84509,3.599236 C -138.08509,2.042986 -136.66134,1.080486 -134.18509,1.080486 L -134.18509,5.611736 C -134.60259,5.440486 -135.02134,5.356736 -135.48509,5.356736 C -137.28884,5.356736 -139.84509,6.487986 -139.84509,9.972986 L -139.84509,22.600486 L -144.12759,22.600486 L -144.12759,1.330486"
         id="path101"
         style="fill:#005b7f;fill-opacity:1;fill-rule:nonzero;stroke:none" />
      <path
         d="M -128.18509,25.074236 C -128.14134,26.080486 -127.38759,27.170486 -125.92009,27.170486 C -124.53634,27.170486 -123.95134,26.204236 -123.95134,24.861736 L -123.95134,20.669236 L -124.03259,20.669236 C -124.95509,22.052986 -126.29759,22.849236 -128.01634,22.849236 C -129.73634,22.849236 -130.99634,22.222986 -131.75009,20.836736 C -132.25509,19.912986 -132.46634,18.614236 -132.46634,16.264236 L -132.46634,8.166736 C -132.46634,5.105486 -132.33884,3.889236 -131.79384,3.009236 C -131.07884,1.875486 -130.03134,1.080486 -127.97634,1.080486 C -125.87634,1.080486 -125.03884,2.042986 -123.95134,3.262986 L -123.95134,1.330486 L -119.67134,1.330486 L -119.67134,25.200486 C -119.67134,28.095486 -121.56134,31.451736 -126.08884,31.451736 C -128.68884,31.451736 -131.91884,29.939236 -132.46634,25.074236 L -128.18509,25.074236 M -128.18509,16.055486 C -128.18509,17.397986 -127.72384,18.569236 -126.08884,18.569236 C -124.87259,18.569236 -123.95134,17.610486 -123.95134,16.264236 L -123.95134,8.001736 C -123.95134,6.450486 -124.78634,5.356736 -126.08884,5.356736 C -127.55759,5.356736 -128.18509,6.531736 -128.18509,8.252986 L -128.18509,16.055486"
         id="path103"
         style="fill:#005b7f;fill-opacity:1;fill-rule:nonzero;stroke:none" />
      <path
         d="M -116.14884,1.330486 L -111.86884,1.330486 L -111.86884,3.387986 L -111.78759,3.387986 C -110.90384,2.042986 -109.72884,1.080486 -107.75759,1.080486 C -105.91134,1.080486 -104.69509,2.170486 -103.94509,3.220486 C -102.89009,2.042986 -101.76134,1.080486 -99.49384,1.080486 C -97.35509,1.080486 -94.84009,2.462986 -94.84009,6.281736 L -94.84009,22.600486 L -99.12009,22.600486 L -99.12009,7.876736 C -99.12009,6.325486 -99.87134,5.356736 -101.21634,5.356736 C -102.80884,5.356736 -103.35384,6.409236 -103.35384,8.296736 L -103.35384,22.600486 L -107.63259,22.600486 L -107.63259,7.876736 C -107.63259,6.325486 -108.38759,5.356736 -109.72884,5.356736 C -111.32134,5.356736 -111.86884,6.409236 -111.86884,8.296736 L -111.86884,22.600486 L -116.14884,22.600486 L -116.14884,1.330486"
         id="path105"
         style="fill:#005b7f;fill-opacity:1;fill-rule:nonzero;stroke:none" />
      <path
         d="M -147.48634,-8.757014 L -147.48634,-12.388264 C -147.48634,-13.445764 -146.69384,-13.994514 -145.90759,-13.994514 C -145.12509,-13.994514 -144.32759,-13.445764 -144.32759,-12.388264 C -144.32759,-12.388264 -144.32759,-12.208264 -144.32759,-12.115764 C -144.44384,-12.115764 -145.05009,-12.115764 -145.16634,-12.115764 C -145.16634,-12.208264 -145.16634,-12.388264 -145.16634,-12.388264 C -145.16634,-12.857014 -145.45884,-13.158264 -145.90759,-13.158264 C -146.35759,-13.158264 -146.64759,-12.857014 -146.64759,-12.388264 L -146.64759,-8.757014 C -146.64759,-8.288264 -146.35759,-7.987014 -145.90759,-7.987014 C -145.45884,-7.987014 -145.16634,-8.288264 -145.16634,-8.757014 L -145.16634,-10.125764 C -145.16634,-10.125764 -145.83009,-10.125764 -145.95134,-10.125764 C -145.95134,-10.237014 -145.95134,-10.735764 -145.95134,-10.845764 C -145.82134,-10.845764 -144.45884,-10.845764 -144.32759,-10.845764 C -144.32759,-10.709514 -144.32759,-8.757014 -144.32759,-8.757014 C -144.32759,-7.699514 -145.12509,-7.150764 -145.90759,-7.150764 C -146.69384,-7.150764 -147.48634,-7.699514 -147.48634,-8.757014"
         id="path107"
         style="fill:#005b7f;fill-opacity:1;fill-rule:nonzero;stroke:none" />
      <path
         d="M -140.80009,-13.968264 C -140.99009,-13.768264 -141.90134,-12.793264 -141.94134,-12.753264 C -141.98509,-12.753264 -142.25759,-12.753264 -142.41134,-12.753264 C -142.29509,-12.938264 -141.67509,-13.909514 -141.63509,-13.968264 C -141.57384,-13.968264 -141.02884,-13.968264 -140.80009,-13.968264"
         id="path109"
         style="fill:#005b7f;fill-opacity:1;fill-rule:nonzero;stroke:none" />
      <path
         d="M -143.13884,-7.815764 C -143.25509,-8.032014 -143.31259,-8.345764 -143.31259,-8.774514 L -143.31259,-10.390764 C -143.31259,-10.819514 -143.25509,-11.134514 -143.13884,-11.349514 C -142.90509,-11.773264 -142.46134,-12.014514 -141.91884,-12.014514 C -141.09759,-12.014514 -140.52134,-11.419514 -140.52134,-10.563264 C -140.52134,-10.563264 -140.52134,-9.415764 -140.52134,-9.283264 C -140.65759,-9.283264 -142.47509,-9.283264 -142.47509,-9.283264 L -142.47509,-8.545764 C -142.47509,-8.200764 -142.26134,-7.987014 -141.91884,-7.987014 C -141.70134,-7.987014 -141.44384,-8.084514 -141.37884,-8.479514 C -141.28634,-8.479514 -140.67134,-8.479514 -140.53509,-8.479514 C -140.55009,-8.125764 -140.67509,-7.792014 -140.89759,-7.560764 C -141.16134,-7.288264 -141.50384,-7.150764 -141.91884,-7.150764 C -142.46134,-7.150764 -142.90509,-7.392014 -143.13884,-7.815764 z M -142.47509,-10.543264 L -142.47509,-9.910764 L -141.35884,-9.910764 L -141.35884,-10.543264 C -141.35884,-10.940764 -141.57009,-11.180764 -141.91884,-11.180764 C -142.26634,-11.180764 -142.47509,-10.940764 -142.47509,-10.543264"
         id="path111"
         style="fill:#005b7f;fill-opacity:1;fill-rule:nonzero;stroke:none" />
      <path
         d="M -139.41884,-7.815764 C -139.53509,-8.033264 -139.59259,-8.354514 -139.59259,-8.774514 L -139.59259,-10.390764 C -139.59259,-10.815764 -139.53509,-11.129514 -139.41884,-11.349514 C -139.18759,-11.773264 -138.74134,-12.014514 -138.19509,-12.014514 C -137.65134,-12.014514 -137.20634,-11.773264 -136.97509,-11.349514 C -136.85884,-11.134514 -136.80134,-10.817014 -136.80134,-10.390764 L -136.80134,-8.774514 C -136.80134,-8.345764 -136.85884,-8.033264 -136.97509,-7.815764 C -137.20634,-7.392014 -137.65134,-7.150764 -138.19509,-7.150764 C -138.74134,-7.150764 -139.18759,-7.392014 -139.41884,-7.815764 z M -138.75259,-10.543264 L -138.75259,-8.622014 C -138.75259,-8.224514 -138.54384,-7.987014 -138.19509,-7.987014 C -137.85009,-7.987014 -137.64134,-8.224514 -137.64134,-8.622014 L -137.64134,-10.543264 C -137.64134,-10.940764 -137.85009,-11.180764 -138.19509,-11.180764 C -138.54384,-11.180764 -138.75259,-10.940764 -138.75259,-10.543264"
         id="path113"
         style="fill:#005b7f;fill-opacity:1;fill-rule:nonzero;stroke:none" />
      <path
         d="M -133.99509,-8.534514 C -133.99509,-8.857014 -134.15884,-9.057014 -134.53884,-9.200764 C -134.54009,-9.202014 -135.01259,-9.375764 -135.01259,-9.375764 C -135.62134,-9.604514 -135.96009,-10.062014 -135.96009,-10.659514 C -135.96009,-11.419514 -135.35634,-12.014514 -134.58509,-12.014514 C -133.85509,-12.014514 -133.32509,-11.477014 -133.28134,-10.732014 C -133.41384,-10.732014 -133.96759,-10.732014 -134.05884,-10.732014 C -134.10134,-11.030764 -134.31884,-11.237014 -134.62134,-11.237014 C -134.98384,-11.237014 -135.17759,-10.943264 -135.17759,-10.670764 C -135.17759,-10.468264 -135.12509,-10.259514 -134.71634,-10.097014 L -134.13634,-9.868264 C -133.51884,-9.630764 -133.21759,-9.200764 -133.21759,-8.554514 C -133.21759,-7.765764 -133.83134,-7.150764 -134.61259,-7.150764 C -135.40134,-7.150764 -135.92759,-7.673264 -135.99259,-8.479514 C -135.85509,-8.479514 -135.29384,-8.479514 -135.20884,-8.479514 C -135.12009,-8.035764 -134.84634,-7.930764 -134.62134,-7.930764 C -134.31384,-7.930764 -133.99509,-8.157014 -133.99509,-8.534514"
         id="path115"
         style="fill:#005b7f;fill-opacity:1;fill-rule:nonzero;stroke:none" />
      <path
         d="M -132.15009,-7.815764 C -132.26884,-8.033264 -132.32634,-8.345764 -132.32634,-8.774514 L -132.32634,-10.390764 C -132.32634,-10.817014 -132.26884,-11.134514 -132.15009,-11.349514 C -131.91884,-11.773264 -131.47509,-12.014514 -130.93009,-12.014514 C -130.12134,-12.014514 -129.58134,-11.445764 -129.54759,-10.598264 C -129.68009,-10.598264 -130.28884,-10.598264 -130.38759,-10.598264 C -130.42009,-11.089514 -130.73259,-11.180764 -130.93009,-11.180764 C -131.27884,-11.180764 -131.48759,-10.940764 -131.48759,-10.543264 L -131.48759,-8.545764 C -131.48759,-8.200764 -131.27509,-7.987014 -130.93009,-7.987014 C -130.71509,-7.987014 -130.45759,-8.084514 -130.39134,-8.479514 C -130.30134,-8.479514 -129.68134,-8.479514 -129.55009,-8.479514 C -129.56384,-8.128264 -129.68884,-7.794514 -129.91009,-7.560764 C -130.17134,-7.288264 -130.51634,-7.150764 -130.93009,-7.150764 C -131.47509,-7.150764 -131.91884,-7.392014 -132.15009,-7.815764"
         id="path117"
         style="fill:#005b7f;fill-opacity:1;fill-rule:nonzero;stroke:none" />
      <path
         d="M -127.87384,-13.939514 C -127.87384,-13.823264 -127.87384,-13.214514 -127.87384,-13.100764 C -127.99009,-13.100764 -128.59634,-13.100764 -128.71134,-13.100764 C -128.71134,-13.214514 -128.71134,-13.823264 -128.71134,-13.939514 C -128.59634,-13.939514 -127.99009,-13.939514 -127.87384,-13.939514"
         id="path119"
         style="fill:#005b7f;fill-opacity:1;fill-rule:nonzero;stroke:none" />
      <path
         d="M -127.87384,-11.959514 C -127.87384,-11.817014 -127.87384,-7.345764 -127.87384,-7.207014 C -127.99009,-7.207014 -128.59634,-7.207014 -128.71134,-7.207014 C -128.71134,-7.345764 -128.71134,-11.817014 -128.71134,-11.959514 C -128.59634,-11.959514 -127.99009,-11.959514 -127.87384,-11.959514"
         id="path121"
         style="fill:#005b7f;fill-opacity:1;fill-rule:nonzero;stroke:none" />
      <path
         d="M -126.73134,-7.815764 C -126.84759,-8.033264 -126.90509,-8.345764 -126.90509,-8.774514 L -126.90509,-10.390764 C -126.90509,-10.817014 -126.84759,-11.134514 -126.73134,-11.349514 C -126.50009,-11.773264 -126.05384,-12.014514 -125.50884,-12.014514 C -124.68759,-12.014514 -124.11384,-11.419514 -124.11384,-10.563264 C -124.11384,-10.563264 -124.11384,-9.415764 -124.11384,-9.283264 C -124.24759,-9.283264 -126.06509,-9.283264 -126.06509,-9.283264 L -126.06509,-8.545764 C -126.06509,-8.200764 -125.85259,-7.987014 -125.50884,-7.987014 C -125.29134,-7.987014 -125.03634,-8.084514 -124.97134,-8.479514 C -124.87884,-8.479514 -124.26134,-8.479514 -124.12759,-8.479514 C -124.14509,-8.125764 -124.26509,-7.792014 -124.49009,-7.560764 C -124.75384,-7.288264 -125.09884,-7.150764 -125.50884,-7.150764 C -126.05384,-7.150764 -126.50009,-7.392014 -126.73134,-7.815764 z M -126.06509,-10.543264 L -126.06509,-9.910764 L -124.95384,-9.910764 L -124.95384,-10.543264 C -124.95384,-10.940764 -125.16259,-11.180764 -125.50884,-11.180764 C -125.85634,-11.180764 -126.06509,-10.940764 -126.06509,-10.543264"
         id="path123"
         style="fill:#005b7f;fill-opacity:1;fill-rule:nonzero;stroke:none" />
      <path
         d="M -115.57759,-7.815764 C -115.69884,-8.033264 -115.75384,-8.345764 -115.75384,-8.774514 L -115.75384,-10.390764 C -115.75384,-10.817014 -115.69884,-11.134514 -115.57759,-11.349514 C -115.35134,-11.773264 -114.90509,-12.014514 -114.36009,-12.014514 C -113.53884,-12.014514 -112.96259,-11.419514 -112.96259,-10.563264 C -112.96259,-10.563264 -112.96259,-9.415764 -112.96259,-9.283264 C -113.09884,-9.283264 -114.91384,-9.283264 -114.91384,-9.283264 L -114.91384,-8.545764 C -114.91384,-8.200764 -114.70259,-7.987014 -114.36009,-7.987014 C -114.14259,-7.987014 -113.88759,-8.084514 -113.82009,-8.479514 C -113.73009,-8.479514 -113.11259,-8.479514 -112.97634,-8.479514 C -112.99634,-8.125764 -113.11634,-7.792014 -113.33884,-7.560764 C -113.60384,-7.288264 -113.94509,-7.150764 -114.36009,-7.150764 C -114.90509,-7.150764 -115.35134,-7.392014 -115.57759,-7.815764 z M -114.91384,-10.543264 L -114.91384,-9.910764 L -113.80259,-9.910764 L -113.80259,-10.543264 C -113.80259,-10.940764 -114.01134,-11.180764 -114.36009,-11.180764 C -114.70759,-11.180764 -114.91384,-10.940764 -114.91384,-10.543264"
         id="path125"
         style="fill:#005b7f;fill-opacity:1;fill-rule:nonzero;stroke:none" />
      <path
         d="M -122.15634,-11.518264 C -121.92759,-11.863264 -121.66009,-12.014514 -121.28634,-12.014514 C -120.83134,-12.014514 -120.34509,-11.720764 -120.34509,-10.890764 C -120.34509,-10.890764 -120.34509,-7.350764 -120.34509,-7.207014 C -120.46259,-7.207014 -121.06884,-7.207014 -121.18509,-7.207014 C -121.18509,-7.345764 -121.18509,-10.523264 -121.18509,-10.523264 C -121.18509,-10.927014 -121.39759,-11.180764 -121.74134,-11.180764 C -122.24634,-11.180764 -122.30509,-10.749514 -122.30509,-10.427014 C -122.30509,-10.427014 -122.30509,-7.345764 -122.30509,-7.207014 C -122.42259,-7.207014 -123.03134,-7.207014 -123.14759,-7.207014 C -123.14759,-7.345764 -123.14759,-11.817014 -123.14759,-11.959514 C -123.03134,-11.959514 -122.42259,-11.959514 -122.30509,-11.959514 C -122.30509,-11.852014 -122.30509,-11.314514 -122.30509,-11.314514 L -122.15634,-11.518264"
         id="path127"
         style="fill:#005b7f;fill-opacity:1;fill-rule:nonzero;stroke:none" />
      <path
         d="M -119.10634,-7.815764 C -119.22259,-8.033264 -119.28259,-8.354514 -119.28259,-8.774514 L -119.28259,-10.390764 C -119.28259,-10.815764 -119.22509,-11.129514 -119.10634,-11.349514 C -118.87634,-11.773264 -118.43009,-12.014514 -117.88509,-12.014514 C -117.07634,-12.014514 -116.53384,-11.445764 -116.50259,-10.598264 C -116.63509,-10.598264 -117.23884,-10.598264 -117.33759,-10.598264 C -117.36384,-10.964514 -117.55509,-11.180764 -117.88509,-11.180764 C -118.23134,-11.180764 -118.44009,-10.940764 -118.44009,-10.543264 L -118.44009,-8.545764 C -118.44009,-8.200764 -118.22759,-7.987014 -117.88509,-7.987014 C -117.57884,-7.987014 -117.39509,-8.165764 -117.34384,-8.479514 C -117.25009,-8.479514 -116.63884,-8.479514 -116.50259,-8.479514 C -116.52009,-8.125764 -116.64384,-7.792014 -116.86759,-7.560764 C -117.12884,-7.288264 -117.47134,-7.150764 -117.88509,-7.150764 C -118.43009,-7.150764 -118.87634,-7.392014 -119.10634,-7.815764"
         id="path129"
         style="fill:#005b7f;fill-opacity:1;fill-rule:nonzero;stroke:none" />
      <path
         d="M -110.15884,-8.534514 C -110.15884,-8.857014 -110.32009,-9.057014 -110.69759,-9.200764 C -110.69759,-9.202014 -111.17634,-9.375764 -111.17634,-9.375764 C -111.78509,-9.604514 -112.12134,-10.062014 -112.12134,-10.659514 C -112.12134,-11.419514 -111.51509,-12.014514 -110.74384,-12.014514 C -110.01634,-12.014514 -109.48509,-11.477014 -109.44009,-10.732014 C -109.57509,-10.732014 -110.13009,-10.732014 -110.22259,-10.732014 C -110.26009,-11.030764 -110.48009,-11.237014 -110.78259,-11.237014 C -111.14384,-11.237014 -111.34134,-10.943264 -111.34134,-10.670764 C -111.34134,-10.468264 -111.28259,-10.259514 -110.87759,-10.097014 L -110.29759,-9.868264 C -109.67634,-9.630764 -109.37884,-9.200764 -109.37884,-8.554514 C -109.37884,-7.765764 -109.99259,-7.150764 -110.77259,-7.150764 C -111.55884,-7.150764 -112.08634,-7.673264 -112.15384,-8.479514 C -112.01759,-8.479514 -111.45509,-8.479514 -111.36759,-8.479514 C -111.28009,-8.035764 -111.00509,-7.930764 -110.78259,-7.930764 C -110.47509,-7.930764 -110.15884,-8.157014 -110.15884,-8.534514"
         id="path131"
         style="fill:#005b7f;fill-opacity:1;fill-rule:nonzero;stroke:none" />
      <path
         d="M -95.98634,-11.959514 C -95.98634,-11.817014 -95.98634,-7.345764 -95.98634,-7.207014 C -96.10384,-7.207014 -96.71009,-7.207014 -96.82384,-7.207014 C -96.82384,-7.313264 -96.82384,-7.853264 -96.82384,-7.853264 L -96.98009,-7.647014 C -97.20634,-7.304514 -97.47259,-7.150764 -97.84509,-7.150764 C -98.30259,-7.150764 -98.78634,-7.447014 -98.78634,-8.275764 C -98.78634,-8.275764 -98.78634,-11.817014 -98.78634,-11.959514 C -98.67384,-11.959514 -98.06259,-11.959514 -97.94634,-11.959514 C -97.94634,-11.817014 -97.94634,-8.639514 -97.94634,-8.639514 C -97.94634,-8.238264 -97.73384,-7.987014 -97.39259,-7.987014 C -96.88509,-7.987014 -96.82384,-8.415764 -96.82384,-8.737014 C -96.82384,-8.737014 -96.82384,-11.817014 -96.82384,-11.959514 C -96.71009,-11.959514 -96.10384,-11.959514 -95.98634,-11.959514"
         id="path133"
         style="fill:#005b7f;fill-opacity:1;fill-rule:nonzero;stroke:none" />
      <path
         d="M -101.15259,-7.150764 C -100.60509,-7.150764 -100.16134,-7.392014 -99.93259,-7.815764 C -99.81634,-8.033264 -99.75509,-8.354514 -99.75509,-8.774514 L -99.75509,-10.390764 C -99.75509,-10.815764 -99.81259,-11.129514 -99.93259,-11.349514 C -100.16134,-11.773264 -100.60509,-12.014514 -101.15259,-12.014514 C -101.69509,-12.014514 -102.14134,-11.773264 -102.37259,-11.349514 C -102.48884,-11.134514 -102.55009,-10.817014 -102.55009,-10.390764 L -102.55009,-8.774514 C -102.55009,-8.345764 -102.48884,-8.033264 -102.37259,-7.815764 C -102.14134,-7.392014 -101.69509,-7.150764 -101.15259,-7.150764 z M -101.15259,-11.180764 C -100.80259,-11.180764 -100.59509,-10.940764 -100.59509,-10.543264 L -100.59509,-8.622014 C -100.59509,-8.224514 -100.80259,-7.987014 -101.15259,-7.987014 C -101.50009,-7.987014 -101.70884,-8.224514 -101.70884,-8.622014 L -101.70884,-10.543264 C -101.70884,-10.940764 -101.50009,-11.180764 -101.15259,-11.180764"
         id="path135"
         style="fill:#005b7f;fill-opacity:1;fill-rule:nonzero;stroke:none" />
      <path
         d="M -105.34259,-11.544514 C -105.09634,-11.817014 -104.92259,-12.014514 -104.46634,-12.014514 C -104.08759,-12.014514 -103.82884,-11.879514 -103.67009,-11.590764 C -103.55884,-11.388264 -103.51509,-11.094514 -103.51509,-10.573264 L -103.51509,-8.708264 C -103.51509,-7.987014 -103.54759,-7.739514 -103.65759,-7.557014 C -103.83759,-7.270764 -104.08384,-7.150764 -104.47509,-7.150764 C -104.82259,-7.150764 -105.11634,-7.310764 -105.32259,-7.618264 L -105.45884,-7.818264 L -105.47634,-7.577014 C -105.47634,-7.577014 -105.47634,-5.364514 -105.47634,-5.228264 C -105.59384,-5.228264 -106.19759,-5.228264 -106.31384,-5.228264 C -106.31384,-5.370764 -106.31384,-11.817014 -106.31384,-11.959514 C -106.19759,-11.959514 -105.59384,-11.959514 -105.47634,-11.959514 C -105.47634,-11.857014 -105.47634,-11.393264 -105.47634,-11.393264 L -105.34259,-11.544514 z M -105.47634,-10.497014 L -105.47634,-8.594514 C -105.47634,-8.247014 -105.23259,-7.987014 -104.91009,-7.987014 C -104.55134,-7.987014 -104.35384,-8.220764 -104.35384,-8.639514 L -104.35384,-10.437014 C -104.35384,-10.908264 -104.55634,-11.180764 -104.91009,-11.180764 C -105.24384,-11.180764 -105.47634,-10.899514 -105.47634,-10.497014"
         id="path137"
         style="fill:#005b7f;fill-opacity:1;fill-rule:nonzero;stroke:none" />
      <path
         d="M -93.97134,-11.454514 C -93.57259,-11.808264 -93.26634,-11.990764 -92.79009,-12.008264 C -92.79009,-11.883264 -92.79009,-11.268264 -92.79009,-11.135764 C -92.88384,-11.153264 -93.01634,-11.180764 -93.01634,-11.180764 C -93.53509,-11.180764 -94.09259,-10.822014 -94.09259,-10.042014 C -94.09259,-10.042014 -94.09259,-7.345764 -94.09259,-7.207014 C -94.20884,-7.207014 -94.81509,-7.207014 -94.93259,-7.207014 C -94.93259,-7.345764 -94.93259,-11.817014 -94.93259,-11.959514 C -94.81509,-11.959514 -94.20884,-11.959514 -94.09259,-11.959514 C -94.09259,-11.850764 -94.09259,-11.347014 -94.09259,-11.347014 L -93.97134,-11.454514"
         id="path139"
         style="fill:#005b7f;fill-opacity:1;fill-rule:nonzero;stroke:none" />
      <path
         d="M -87.40634,-11.959514 C -87.40634,-11.817014 -87.40634,-7.345764 -87.40634,-7.207014 C -87.52259,-7.207014 -88.12884,-7.207014 -88.24634,-7.207014 C -88.24634,-7.313264 -88.24634,-7.850764 -88.24634,-7.850764 L -88.40009,-7.647014 C -88.62759,-7.304514 -88.89384,-7.150764 -89.26509,-7.150764 C -89.72259,-7.150764 -90.21009,-7.447014 -90.21009,-8.275764 C -90.21009,-8.275764 -90.21009,-11.817014 -90.21009,-11.959514 C -90.09384,-11.959514 -89.48259,-11.959514 -89.37134,-11.959514 C -89.37134,-11.817014 -89.37134,-8.639514 -89.37134,-8.639514 C -89.37134,-8.238264 -89.15509,-7.987014 -88.81259,-7.987014 C -88.30509,-7.987014 -88.24634,-8.415764 -88.24634,-8.737014 C -88.24634,-8.737014 -88.24634,-11.817014 -88.24634,-11.959514 C -88.12884,-11.959514 -87.52259,-11.959514 -87.40634,-11.959514"
         id="path141"
         style="fill:#005b7f;fill-opacity:1;fill-rule:nonzero;stroke:none" />
      <path
         d="M -85.35884,-11.518264 C -85.13509,-11.863264 -84.86384,-12.014514 -84.49009,-12.014514 C -84.03634,-12.014514 -83.55009,-11.720764 -83.55009,-10.890764 C -83.55009,-10.890764 -83.55009,-7.350764 -83.55009,-7.207014 C -83.66884,-7.207014 -84.27509,-7.207014 -84.39134,-7.207014 C -84.39134,-7.345764 -84.39134,-10.523264 -84.39134,-10.523264 C -84.39134,-10.927014 -84.60509,-11.180764 -84.95009,-11.180764 C -85.45509,-11.180764 -85.51259,-10.749514 -85.51259,-10.427014 C -85.51259,-10.427014 -85.51259,-7.345764 -85.51259,-7.207014 C -85.62884,-7.207014 -86.23509,-7.207014 -86.35134,-7.207014 C -86.35134,-7.345764 -86.35134,-11.817014 -86.35134,-11.959514 C -86.23509,-11.959514 -85.62884,-11.959514 -85.51259,-11.959514 C -85.51259,-11.852014 -85.51259,-11.312014 -85.51259,-11.312014 L -85.35884,-11.518264"
         id="path143"
         style="fill:#005b7f;fill-opacity:1;fill-rule:nonzero;stroke:none" />
      <path
         d="M -74.39009,-13.939514 C -74.39009,-13.825764 -74.39009,-13.272014 -74.39009,-13.158264 C -74.52009,-13.158264 -75.53009,-13.158264 -75.53009,-13.158264 C -75.53009,-13.158264 -75.53009,-7.350764 -75.53009,-7.207014 C -75.64634,-7.207014 -76.25509,-7.207014 -76.37134,-7.207014 C -76.37134,-7.350764 -76.37134,-13.158264 -76.37134,-13.158264 C -76.37134,-13.158264 -77.38259,-13.158264 -77.51009,-13.158264 C -77.51009,-13.272014 -77.51009,-13.825764 -77.51009,-13.939514 C -77.37134,-13.939514 -74.52884,-13.939514 -74.39009,-13.939514"
         id="path145"
         style="fill:#005b7f;fill-opacity:1;fill-rule:nonzero;stroke:none" />
      <path
         d="M -69.78509,-11.454514 C -69.38009,-11.808264 -69.07634,-11.990764 -68.60009,-12.008264 C -68.60009,-11.883264 -68.60009,-11.268264 -68.60009,-11.135764 C -68.69634,-11.153264 -68.82634,-11.180764 -68.82634,-11.180764 C -69.34509,-11.180764 -69.90509,-10.822014 -69.90509,-10.042014 C -69.90509,-10.042014 -69.90509,-7.345764 -69.90509,-7.207014 C -70.02134,-7.207014 -70.62759,-7.207014 -70.74509,-7.207014 C -70.74509,-7.345764 -70.74509,-11.817014 -70.74509,-11.959514 C -70.62759,-11.959514 -70.02134,-11.959514 -69.90509,-11.959514 C -69.90509,-11.850764 -69.90509,-11.347014 -69.90509,-11.347014 L -69.78509,-11.454514"
         id="path147"
         style="fill:#005b7f;fill-opacity:1;fill-rule:nonzero;stroke:none" />
      <path
         d="M -67.09509,-11.454514 C -66.69509,-11.808264 -66.39134,-11.990764 -65.91259,-12.008264 C -65.91259,-11.883264 -65.91259,-11.268264 -65.91259,-11.135764 C -66.01134,-11.153264 -66.14384,-11.180764 -66.14384,-11.180764 C -66.66009,-11.180764 -67.21759,-10.822014 -67.21759,-10.042014 C -67.21759,-10.042014 -67.21759,-7.345764 -67.21759,-7.207014 C -67.33384,-7.207014 -67.94134,-7.207014 -68.05509,-7.207014 C -68.05509,-7.345764 -68.05509,-11.817014 -68.05509,-11.959514 C -67.94134,-11.959514 -67.33384,-11.959514 -67.21759,-11.959514 C -67.21759,-11.850764 -67.21759,-11.347014 -67.21759,-11.347014 L -67.09509,-11.454514"
         id="path149"
         style="fill:#005b7f;fill-opacity:1;fill-rule:nonzero;stroke:none" />
      <path
         d="M -52.95509,-11.959514 C -52.95509,-11.817014 -52.95509,-7.345764 -52.95509,-7.207014 C -53.07259,-7.207014 -53.68009,-7.207014 -53.79759,-7.207014 C -53.79759,-7.313264 -53.79759,-7.850764 -53.79759,-7.850764 L -53.94884,-7.647014 C -54.17509,-7.304514 -54.44259,-7.150764 -54.81884,-7.150764 C -55.26884,-7.150764 -55.75509,-7.447014 -55.75509,-8.275764 C -55.75509,-8.275764 -55.75509,-11.817014 -55.75509,-11.959514 C -55.63884,-11.959514 -55.03384,-11.959514 -54.91759,-11.959514 C -54.91759,-11.817014 -54.91759,-8.639514 -54.91759,-8.639514 C -54.91759,-8.238264 -54.70509,-7.987014 -54.36009,-7.987014 C -53.85634,-7.987014 -53.79759,-8.415764 -53.79759,-8.737014 C -53.79759,-8.737014 -53.79759,-11.817014 -53.79759,-11.959514 C -53.68009,-11.959514 -53.07259,-11.959514 -52.95509,-11.959514"
         id="path151"
         style="fill:#005b7f;fill-opacity:1;fill-rule:nonzero;stroke:none" />
      <path
         d="M -56.81134,-13.939514 C -56.81134,-13.797014 -56.81134,-7.350764 -56.81134,-7.207014 C -56.92759,-7.207014 -57.53509,-7.207014 -57.65134,-7.207014 C -57.65134,-7.310764 -57.65134,-7.768264 -57.65134,-7.768264 L -57.78509,-7.618264 C -58.03134,-7.345764 -58.20759,-7.150764 -58.66384,-7.150764 C -59.04134,-7.150764 -59.30134,-7.288264 -59.45759,-7.574514 C -59.56759,-7.778264 -59.61509,-8.070764 -59.61509,-8.594514 L -59.61509,-10.457014 C -59.61509,-11.167014 -59.58009,-11.425764 -59.46884,-11.608264 C -59.29009,-11.894514 -59.04384,-12.014514 -58.65134,-12.014514 C -58.30134,-12.014514 -58.00759,-11.852014 -57.80509,-11.544514 L -57.66884,-11.343264 L -57.65134,-11.587014 C -57.65134,-11.587014 -57.65134,-13.802014 -57.65134,-13.939514 C -57.53509,-13.939514 -56.92759,-13.939514 -56.81134,-13.939514 z M -58.77384,-10.523264 L -58.77384,-8.730764 C -58.77384,-8.258264 -58.57134,-7.987014 -58.21634,-7.987014 C -57.87759,-7.987014 -57.65134,-8.259514 -57.65134,-8.668264 L -57.65134,-10.573264 C -57.65134,-10.918264 -57.89509,-11.180764 -58.21634,-11.180764 C -58.47009,-11.180764 -58.77384,-11.065764 -58.77384,-10.523264"
         id="path153"
         style="fill:#005b7f;fill-opacity:1;fill-rule:nonzero;stroke:none" />
      <path
         d="M -50.94009,-11.454514 C -50.53884,-11.808264 -50.23259,-11.990764 -49.75884,-12.008264 C -49.75884,-11.883264 -49.75884,-11.268264 -49.75884,-11.135764 C -49.85509,-11.153264 -49.98509,-11.180764 -49.98509,-11.180764 C -50.50384,-11.180764 -51.06134,-10.822014 -51.06134,-10.042014 C -51.06134,-10.042014 -51.06134,-7.345764 -51.06134,-7.207014 C -51.17759,-7.207014 -51.78634,-7.207014 -51.90259,-7.207014 C -51.90259,-7.345764 -51.90259,-11.817014 -51.90259,-11.959514 C -51.78634,-11.959514 -51.17759,-11.959514 -51.06134,-11.959514 C -51.06134,-11.850764 -51.06134,-11.347014 -51.06134,-11.347014 L -50.94009,-11.454514"
         id="path155"
         style="fill:#005b7f;fill-opacity:1;fill-rule:nonzero;stroke:none" />
      <path
         d="M -48.99134,-11.624514 C -48.73634,-11.880764 -48.38134,-12.014514 -47.97259,-12.014514 C -47.29259,-12.014514 -46.56634,-11.630764 -46.56634,-10.543264 C -46.56634,-10.543264 -46.56634,-7.345764 -46.56634,-7.207014 C -46.68259,-7.207014 -47.29259,-7.207014 -47.40759,-7.207014 C -47.41009,-7.313264 -47.42009,-7.855764 -47.42009,-7.855764 L -47.55009,-7.679514 C -47.81384,-7.319514 -48.01384,-7.150764 -48.44634,-7.150764 C -48.89759,-7.150764 -49.43509,-7.363264 -49.43509,-8.380764 C -49.43509,-9.410764 -49.19759,-9.969514 -47.95009,-9.969514 L -47.72009,-9.955764 L -47.40509,-9.934514 L -47.40759,-10.013264 L -47.40759,-10.523264 C -47.40759,-10.947014 -47.60759,-11.180764 -47.97259,-11.180764 C -48.26634,-11.180764 -48.50384,-10.975764 -48.58509,-10.685764 C -48.66634,-10.685764 -49.26009,-10.685764 -49.39634,-10.685764 C -49.35884,-11.063264 -49.22509,-11.390764 -48.99134,-11.624514 z M -48.59884,-8.572014 C -48.59884,-8.148264 -48.36759,-7.870764 -48.01384,-7.870764 C -47.63759,-7.870764 -47.40759,-8.139514 -47.40759,-8.572014 L -47.40759,-9.303264 L -47.75009,-9.343264 C -48.29509,-9.343264 -48.59884,-9.068264 -48.59884,-8.572014"
         id="path157"
         style="fill:#005b7f;fill-opacity:1;fill-rule:nonzero;stroke:none" />
      <path
         d="M -44.76009,-13.939514 C -44.76009,-13.802014 -44.76009,-11.343264 -44.76009,-11.343264 L -44.60634,-11.544514 C -44.40134,-11.852014 -44.10884,-12.014514 -43.76009,-12.014514 C -43.36634,-12.014514 -43.12009,-11.894514 -42.94259,-11.607014 C -42.83009,-11.425764 -42.80009,-11.180764 -42.80009,-10.457014 L -42.80009,-8.594514 C -42.80009,-8.070764 -42.84634,-7.777014 -42.95509,-7.574514 C -43.11009,-7.288264 -43.36884,-7.150764 -43.75134,-7.150764 C -44.20634,-7.150764 -44.38134,-7.345764 -44.62384,-7.618264 L -44.75134,-7.760764 L -44.76009,-7.577014 C -44.76009,-7.577014 -44.76009,-7.310764 -44.76009,-7.207014 C -44.87634,-7.207014 -45.48509,-7.207014 -45.60134,-7.207014 C -45.60134,-7.350764 -45.60134,-13.797014 -45.60134,-13.939514 C -45.48509,-13.939514 -44.87634,-13.939514 -44.76009,-13.939514 z M -44.76009,-10.573264 L -44.76009,-8.668264 C -44.76009,-8.259514 -44.53134,-7.987014 -44.19259,-7.987014 C -43.84134,-7.987014 -43.63884,-8.258264 -43.63884,-8.730764 L -43.63884,-10.523264 C -43.63884,-11.065764 -43.94259,-11.180764 -44.19259,-11.180764 C -44.51759,-11.180764 -44.76009,-10.918264 -44.76009,-10.573264"
         id="path159"
         style="fill:#005b7f;fill-opacity:1;fill-rule:nonzero;stroke:none" />
      <path
         d="M -41.08384,-13.869514 C -41.08384,-13.727014 -41.08384,-8.444514 -41.08384,-8.444514 C -41.08384,-8.068264 -40.95384,-7.923264 -40.59759,-7.873264 C -40.59759,-7.777014 -40.59759,-7.200764 -40.59759,-7.082014 C -41.43509,-7.095764 -41.92134,-7.324514 -41.92134,-8.377014 C -41.92134,-8.377014 -41.92134,-13.727014 -41.92134,-13.869514 C -41.80384,-13.869514 -41.20009,-13.869514 -41.08384,-13.869514"
         id="path161"
         style="fill:#005b7f;fill-opacity:1;fill-rule:nonzero;stroke:none" />
      <path
         d="M -39.80884,-7.815764 C -39.92634,-8.033264 -39.98509,-8.354514 -39.98509,-8.774514 L -39.98509,-10.390764 C -39.98509,-10.815764 -39.92759,-11.129514 -39.80884,-11.349514 C -39.57884,-11.773264 -39.13509,-12.014514 -38.59009,-12.014514 C -37.76759,-12.014514 -37.19509,-11.419514 -37.19509,-10.563264 C -37.19509,-10.563264 -37.19509,-9.415764 -37.19509,-9.283264 C -37.33009,-9.283264 -39.14759,-9.283264 -39.14759,-9.283264 L -39.14759,-8.545764 C -39.14759,-8.200764 -38.93509,-7.987014 -38.59009,-7.987014 C -38.28384,-7.987014 -38.10009,-8.165764 -38.04884,-8.479514 C -37.95759,-8.479514 -37.34009,-8.479514 -37.20759,-8.479514 C -37.22259,-8.125764 -37.34634,-7.792014 -37.57009,-7.560764 C -37.83384,-7.288264 -38.17509,-7.150764 -38.59009,-7.150764 C -39.13509,-7.150764 -39.57884,-7.392014 -39.80884,-7.815764 z M -39.14759,-10.543264 L -39.14759,-9.910764 L -38.03384,-9.910764 L -38.03384,-10.543264 C -38.03384,-10.940764 -38.24259,-11.180764 -38.59009,-11.180764 C -38.93884,-11.180764 -39.14759,-10.940764 -39.14759,-10.543264"
         id="path163"
         style="fill:#005b7f;fill-opacity:1;fill-rule:nonzero;stroke:none" />
      <path
         d="M -65.18759,-7.815764 C -65.30384,-8.033264 -65.36134,-8.354514 -65.36134,-8.774514 L -65.36134,-10.390764 C -65.36134,-10.815764 -65.30384,-11.129514 -65.18759,-11.349514 C -64.95759,-11.773264 -64.51134,-12.014514 -63.96384,-12.014514 C -63.14259,-12.014514 -62.57134,-11.419514 -62.57134,-10.563264 C -62.57134,-10.563264 -62.57134,-9.415764 -62.57134,-9.283264 C -62.70259,-9.283264 -64.52009,-9.283264 -64.52009,-9.283264 L -64.52009,-8.545764 C -64.52009,-8.200764 -64.30634,-7.987014 -63.96384,-7.987014 C -63.66009,-7.987014 -63.47634,-8.165764 -63.42509,-8.479514 C -63.33134,-8.479514 -62.71759,-8.479514 -62.58134,-8.479514 C -62.59884,-8.125764 -62.72509,-7.792014 -62.94384,-7.560764 C -63.21009,-7.288264 -63.55134,-7.150764 -63.96384,-7.150764 C -64.51134,-7.150764 -64.95759,-7.392014 -65.18759,-7.815764 z M -64.52009,-10.543264 L -64.52009,-9.910764 L -63.40759,-9.910764 L -63.40759,-10.543264 C -63.40759,-10.940764 -63.61634,-11.180764 -63.96384,-11.180764 C -64.31259,-11.180764 -64.52009,-10.940764 -64.52009,-10.543264"
         id="path165"
         style="fill:#005b7f;fill-opacity:1;fill-rule:nonzero;stroke:none" />
      <path
         d="M -74.32884,-7.815764 C -74.44509,-8.033264 -74.50134,-8.354514 -74.50134,-8.774514 L -74.50134,-10.390764 C -74.50134,-10.815764 -74.44759,-11.129514 -74.32884,-11.349514 C -74.09759,-11.773264 -73.65384,-12.014514 -73.10634,-12.014514 C -72.28509,-12.014514 -71.71134,-11.419514 -71.71134,-10.563264 C -71.71134,-10.563264 -71.71134,-9.415764 -71.71134,-9.283264 C -71.84759,-9.283264 -73.66509,-9.283264 -73.66509,-9.283264 L -73.66509,-8.545764 C -73.66509,-8.200764 -73.45134,-7.987014 -73.10634,-7.987014 C -72.80134,-7.987014 -72.61509,-8.165764 -72.56634,-8.479514 C -72.47384,-8.479514 -71.85884,-8.479514 -71.72509,-8.479514 C -71.74259,-8.125764 -71.86259,-7.792014 -72.08884,-7.560764 C -72.35134,-7.288264 -72.69634,-7.150764 -73.10634,-7.150764 C -73.65384,-7.150764 -74.09759,-7.392014 -74.32884,-7.815764 z M -73.66509,-10.543264 L -73.66509,-9.910764 L -72.55134,-9.910764 L -72.55134,-10.543264 C -72.55134,-10.940764 -72.76009,-11.180764 -73.10634,-11.180764 C -73.45384,-11.180764 -73.66509,-10.940764 -73.66509,-10.543264"
         id="path167"
         style="fill:#005b7f;fill-opacity:1;fill-rule:nonzero;stroke:none" />
      <path
         d="M -82.41009,-7.815764 C -82.52884,-8.033264 -82.58509,-8.354514 -82.58509,-8.774514 L -82.58509,-10.390764 C -82.58509,-10.815764 -82.52884,-11.129514 -82.41009,-11.349514 C -82.17884,-11.773264 -81.73259,-12.014514 -81.18759,-12.014514 C -80.36384,-12.014514 -79.79259,-11.419514 -79.79259,-10.563264 C -79.79259,-10.563264 -79.79259,-9.415764 -79.79259,-9.283264 C -79.92884,-9.283264 -81.74634,-9.283264 -81.74634,-9.283264 L -81.74634,-8.545764 C -81.74634,-8.200764 -81.53259,-7.987014 -81.18759,-7.987014 C -80.88509,-7.987014 -80.70009,-8.165764 -80.65009,-8.479514 C -80.55509,-8.479514 -79.94009,-8.479514 -79.80384,-8.479514 C -79.82384,-8.125764 -79.94884,-7.792014 -80.16884,-7.560764 C -80.43259,-7.288264 -80.77509,-7.150764 -81.18759,-7.150764 C -81.73259,-7.150764 -82.17884,-7.392014 -82.41009,-7.815764 z M -81.74634,-10.543264 L -81.74634,-9.910764 L -80.63259,-9.910764 L -80.63259,-10.543264 C -80.63259,-10.940764 -80.84134,-11.180764 -81.18759,-11.180764 C -81.53759,-11.180764 -81.74634,-10.940764 -81.74634,-10.543264"
         id="path169"
         style="fill:#005b7f;fill-opacity:1;fill-rule:nonzero;stroke:none" />
    </g>
  </g>
</svg>
