<?xml version="1.0" encoding="utf-8"?>
<!-- Generator: Adobe Illustrator 19.2.1, SVG Export Plug-In . SVG Version: 6.00 Build 0)  -->
<!DOCTYPE svg PUBLIC "-//W3C//DTD SVG 1.1//EN" "http://www.w3.org/Graphics/SVG/1.1/DTD/svg11.dtd">
<svg version="1.1" id="Calque_1" xmlns="http://www.w3.org/2000/svg" xmlns:xlink="http://www.w3.org/1999/xlink" x="0px" y="0px"
	 width="257.7px" height="62.1px" viewBox="0 0 257.7 62.1" enable-background="new 0 0 257.7 62.1" xml:space="preserve">
<g>
	<path fill="#FF5600" d="M122.3,27.5v-4.9c0,0-1.3,0.3-3.1,0.3c-1.4,0-2-1-2-2.5V11h4.6V5.7h-4.6V0h-6.3v5.7h-2.6V11h2.6v10.5
		c0,5.1,2.6,6.7,6.4,6.7C120.9,28.2,122.3,27.5,122.3,27.5"/>
	<path fill="#FF5600" d="M142,16.9c0,3.3-2.1,6-5.7,6c-3.5,0-5.8-2.9-5.8-6.1v-0.1c0-3.3,2.1-6,5.7-6C139.6,10.7,142,13.5,142,16.9
		L142,16.9z M148.2,16.8L148.2,16.8c0-6.4-5.1-11.5-11.9-11.5c-6.9,0-12,5.2-12,11.5v0.1c0,6.4,5.1,11.5,11.9,11.5
		C143,28.3,148.2,23.1,148.2,16.8"/>
	<path fill="#747474" d="M101,16.8c0,3.7-2.5,6.1-5.4,6.1s-5.4-2.4-5.4-6.1v-0.1c0-3.7,2.4-6.1,5.4-6.1S101,13,101,16.8L101,16.8z
		 M106.6,16.8L106.6,16.8c0-7.5-4.9-11.5-10.1-11.5c-3.3,0-5.4,1.5-6.9,3.6V5.7h-5.9v28.8h5.9v-9.5c1.5,1.8,3.6,3.3,6.9,3.3
		C101.8,28.2,106.6,24.2,106.6,16.8"/>
	<path fill="#747474" d="M252.1,16.8c0,3.7-2.5,6.1-5.4,6.1s-5.4-2.4-5.4-6.1v-0.1c0-3.7,2.4-6.1,5.4-6.1S252.1,13,252.1,16.8
		L252.1,16.8z M257.7,16.8L257.7,16.8c0-7.5-4.9-11.5-10.1-11.5c-3.3,0-5.4,1.5-6.9,3.6V5.7h-5.9v28.8h5.9v-9.5
		c1.5,1.8,3.6,3.3,6.9,3.3C252.9,28.2,257.7,24.2,257.7,16.8"/>
	<path fill="#747474" d="M20.6,24.3l-3.7-3.7c-1.5,1.4-3,2.4-5.1,2.4c-3.4,0-5.6-2.7-5.6-6.1v-0.1c0-3.3,2.2-6,5.4-6
		c2.2,0,3.6,1,5,2.4L20.5,9c-2.1-2.3-4.7-3.7-8.8-3.7C4.8,5.2,0,10.5,0,16.8v0.1c0,6.3,4.9,11.5,11.5,11.5
		C16,28.3,18.4,26.6,20.6,24.3"/>
	<path fill="#747474" d="M171.7,24.3l-3.7-3.7c-1.5,1.4-3,2.4-5.1,2.4c-3.4,0-5.6-2.7-5.6-6.1v-0.1c0-3.3,2.2-6,5.4-6
		c2.2,0,3.6,1,5,2.4l3.8-4.1c-2.1-2.3-4.7-3.7-8.8-3.7c-6.8,0-11.6,5.2-11.6,11.5v0.1c0,6.3,4.9,11.5,11.5,11.5
		C167,28.3,169.5,26.6,171.7,24.3"/>
	<path fill="#747474" d="M31.7,23.8c-1.8,0-2.9-0.9-2.9-2.1c0-1.4,0.7-2.1,2.6-2.4c4.1-0.6,5.1-1.3,5.1-1.3
		C37.2,23.2,33.6,23.8,31.7,23.8 M42.6,27.8c0,0,0-10.7,0-14.4c0-4.4-3.4-8.2-9.9-8.2c-5.8,0-9,3.7-9,3.7l3.7,3.9
		c0,0,1.6-2.2,5.1-2.2c2.7,0,4,0.8,4,2.1c0,3.7-13.6-0.6-13.6,9.3c0,4.8,3.5,6.2,6.8,6.2c5,0,6.8-2.8,6.8-2.8l-0.1,2.3L42.6,27.8z"
		/>
	<path fill="#747474" d="M182.7,23.8c-1.8,0-2.9-0.9-2.9-2.1c0-1.4,0.7-2.1,2.6-2.4c4.1-0.6,5.1-1.3,5.1-1.3
		C188.2,23.2,184.6,23.8,182.7,23.8 M193.7,27.8c0,0,0-10.7,0-14.4c0-4.4-3.4-8.2-9.9-8.2c-5.8,0-9,3.7-9,3.7l3.7,3.9
		c0,0,1.6-2.2,5.1-2.2c2.7,0,4,0.8,4,2.1c0,3.7-13.6-0.6-13.6,9.3c0,4.8,3.5,6.2,6.8,6.2c5,0,6.8-2.8,6.8-2.8l-0.1,2.3L193.7,27.8z"
		/>
	<path fill="#747474" d="M80.2,27.8V13.4c0-5.3-2.8-8.1-7.5-8.1c-3,0-5.3,1.2-7.3,3.5c-1.2-2.2-3.3-3.5-6.2-3.5
		c-3.2,0-5.1,1.7-6.5,3.6V5.7h-6.3v22.2h6.3V15.5c0-3,1.4-4.5,3.8-4.5s3.7,1.5,3.7,4.5v12.4h6.3V15.5c0-3,1.4-4.5,3.8-4.5
		c2.4,0,3.7,1.5,3.7,4.5v12.4H80.2z"/>
	<path fill="#747474" d="M231.2,27.8V13.4c0-5.3-2.8-8.1-7.5-8.1c-3,0-5.3,1.2-7.3,3.5c-1.2-2.2-3.3-3.5-6.2-3.5
		c-3.2,0-5.1,1.7-6.5,3.6V5.7h-6.3v22.2h6.3V15.5c0-3,1.4-4.5,3.8-4.5s3.7,1.5,3.7,4.5v12.4h6.3V15.5c0-3,1.4-4.5,3.8-4.5
		c2.4,0,3.7,1.5,3.7,4.5v12.4H231.2z"/>
	<path fill="#747474" d="M168.1,55.7c0-0.6,0.5-1,1.4-1c0.8,0,1.6,0.3,2.3,0.9l0.8-1.1c-0.9-0.7-1.9-1.1-3.1-1.1
		c-1.7,0-2.9,1-2.9,2.5c0,1.6,1,2.1,2.8,2.6c1.6,0.4,1.9,0.7,1.9,1.3c0,0.7-0.6,1.1-1.5,1.1c-1.1,0-1.9-0.4-2.7-1.1l-0.9,1.1
		c1,0.9,2.3,1.4,3.6,1.4c1.8,0,3.1-1,3.1-2.6c0-1.4-0.9-2.1-2.7-2.5C168.5,56.7,168.1,56.4,168.1,55.7 M163,54.8h2.7v-1.4h-6.9v1.4
		h2.7V62h1.5V54.8z M156.3,56.3c0,0.9-0.7,1.4-1.8,1.4h-2.2v-2.9h2.2C155.6,54.8,156.3,55.3,156.3,56.3 M158.1,62l-2.3-3.2
		c1.2-0.3,2-1.2,2-2.6c0-1.7-1.2-2.7-3.2-2.7h-3.8V62h1.5v-3h1.9l2.1,3H158.1z M149.2,53.5h-6.3V62h6.4v-1.3h-4.9v-2.3h4.3V57h-4.3
		v-2.2h4.8V53.5z M140.1,56.4c0,0.9-0.7,1.5-1.8,1.5h-1.7v-3.1h1.7C139.4,54.8,140.1,55.3,140.1,56.4 M141.6,56.3
		c0-1.7-1.3-2.9-3.2-2.9H135V62h1.5v-2.7h1.7C140.1,59.3,141.6,58.3,141.6,56.3 M133.7,62l-3.1-4.4l3-4.2h-1.7l-2.1,3.1l-2.1-3.1
		h-1.8l3,4.2l-3.1,4.3h1.7l2.3-3.2l2.2,3.2H133.7z M124.8,53.5h-6.3V62h6.4v-1.3h-4.9v-2.3h4.3V57h-4.3v-2.2h4.8V53.5z M113.4,53.5
		h-6.3V62h6.4v-1.3h-4.9v-2.3h4.3V57h-4.3v-2.2h4.8V53.5z M105.7,60.6l-1-1c-0.7,0.7-1.4,1.1-2.5,1.1c-1.6,0-2.8-1.4-2.8-3.1
		c0-1.7,1.2-3,2.8-3c1,0,1.7,0.4,2.4,1.1l1-1.1c-0.8-0.8-1.8-1.3-3.3-1.3c-2.6,0-4.4,2-4.4,4.4c0,2.5,1.9,4.4,4.3,4.4
		C103.9,62.1,104.8,61.6,105.7,60.6 M95.2,56.3c0,0.9-0.7,1.4-1.8,1.4h-2.2v-2.9h2.2C94.5,54.8,95.2,55.3,95.2,56.3 M97,62l-2.3-3.2
		c1.2-0.3,2-1.2,2-2.6c0-1.7-1.2-2.7-3.2-2.7h-3.8V62h1.5v-3h1.9l2.1,3H97z M87.9,53.5h-1.5v4.9c0,1.6-0.8,2.4-2.1,2.4
		c-1.3,0-2.2-0.9-2.2-2.4v-4.9h-1.5v4.9c0,2.5,1.4,3.8,3.6,3.8c2.2,0,3.7-1.3,3.7-3.8V53.5z M77.6,57.7c0,1.7-1.2,3-2.9,3
		c-1.7,0-2.9-1.4-2.9-3.1s1.2-3,2.9-3S77.6,56.1,77.6,57.7 M79.2,57.7c0-2.4-1.8-4.4-4.5-4.4c-2.6,0-4.5,2-4.5,4.4
		c0,2.4,1.8,4.4,4.5,4.4S79.2,60.1,79.2,57.7 M64.3,55.7c0-0.6,0.5-1,1.4-1c0.8,0,1.6,0.3,2.3,0.9l0.8-1.1c-0.9-0.7-1.9-1.1-3.1-1.1
		c-1.7,0-2.9,1-2.9,2.5c0,1.6,1,2.1,2.8,2.6c1.6,0.4,1.9,0.7,1.9,1.3c0,0.7-0.6,1.1-1.5,1.1c-1.1,0-1.9-0.4-2.7-1.1l-0.9,1.1
		c1,0.9,2.3,1.4,3.6,1.4c1.8,0,3.1-1,3.1-2.6c0-1.4-0.9-2.1-2.7-2.5C64.7,56.7,64.3,56.4,64.3,55.7 M56.2,59.4l-4.6-5.9h-1.4V62h1.5
		v-6.1l4.7,6.1h1.3v-8.5h-1.5V59.4z M48.6,53.5h-6.3V62h6.4v-1.3h-4.9v-2.3h4.3V57h-4.3v-2.2h4.8V53.5z M39.5,56.4
		c0,0.9-0.7,1.5-1.8,1.5h-1.7v-3.1h1.7C38.8,54.8,39.5,55.3,39.5,56.4 M41,56.3c0-1.7-1.3-2.9-3.2-2.9h-3.4V62h1.5v-2.7h1.7
		C39.5,59.3,41,58.3,41,56.3 M31.2,57.7c0,1.7-1.2,3-2.9,3c-1.7,0-2.9-1.4-2.9-3.1s1.2-3,2.9-3C30,54.7,31.2,56.1,31.2,57.7
		 M32.8,57.7c0-2.4-1.8-4.4-4.5-4.4s-4.5,2-4.5,4.4c0,2.4,1.8,4.4,4.5,4.4C31,62.1,32.8,60.1,32.8,57.7 M16.4,58.6l3.4-5.1H18
		l-2.4,3.8l-2.4-3.8h-1.8l3.4,5.2V62h1.5V58.6z M8.1,60.7H5.6v-2.3H8c1.2,0,1.8,0.4,1.8,1.2C9.8,60.3,9.1,60.7,8.1,60.7 M7.7,57.1
		H5.6v-2.3h2.2c1,0,1.5,0.4,1.5,1.1C9.3,56.7,8.6,57.1,7.7,57.1 M8,53.5H4.1V62h4c1.9,0,3.2-0.8,3.2-2.4c0-1.2-0.7-1.7-1.7-2.1
		c0.6-0.3,1.2-0.9,1.2-1.9C10.8,54.3,9.7,53.5,8,53.5"/>
	<path fill="#747474" d="M149.5,42.1c0-0.6,0.5-1,1.4-1c0.8,0,1.5,0.3,2.3,0.9l0.8-1.1c-0.9-0.7-1.9-1.1-3.1-1.1
		c-1.7,0-2.9,1-2.9,2.5c0,1.6,1,2.1,2.8,2.6c1.6,0.4,1.9,0.7,1.9,1.3c0,0.7-0.6,1.1-1.5,1.1c-1.1,0-1.9-0.4-2.7-1.1l-0.9,1.1
		c1,0.9,2.3,1.4,3.6,1.4c1.8,0,3.1-1,3.1-2.6c0-1.4-0.9-2.1-2.7-2.5C149.9,43.1,149.5,42.8,149.5,42.1 M144.8,45.8l-4.6-5.9h-1.4
		v8.5h1.5v-6.1l4.7,6.1h1.3v-8.5h-1.5V45.8z M135.7,44.2c0,1.7-1.2,3-2.9,3s-2.9-1.4-2.9-3.1c0-1.7,1.2-3,2.9-3
		C134.5,41.1,135.7,42.5,135.7,44.2 M137.3,44.2c0-2.4-1.8-4.4-4.5-4.4c-2.6,0-4.5,2-4.5,4.4c0,2.4,1.8,4.4,4.5,4.4
		C135.4,48.6,137.3,46.6,137.3,44.2 M125.2,48.5h1.5v-8.5h-1.5V48.5z M121.1,41.3h2.7v-1.4h-6.9v1.4h2.7v7.2h1.5V41.3z M115.6,39.9
		h-1.5v4.9c0,1.6-0.8,2.4-2.1,2.4c-1.3,0-2.2-0.9-2.2-2.4v-4.9h-1.5v4.9c0,2.5,1.4,3.8,3.6,3.8c2.2,0,3.7-1.3,3.7-3.8V39.9z
		 M101.4,48.5h6v-1.4h-4.5v-7.2h-1.5V48.5z M98.2,44.2c0,1.7-1.2,3-2.9,3s-2.9-1.4-2.9-3.1c0-1.7,1.2-3,2.9-3
		C97,41.1,98.2,42.5,98.2,44.2 M99.8,44.2c0-2.4-1.8-4.4-4.5-4.4s-4.5,2-4.5,4.4c0,2.4,1.8,4.4,4.5,4.4C98,48.6,99.8,46.6,99.8,44.2
		 M85,42.1c0-0.6,0.5-1,1.4-1c0.8,0,1.6,0.3,2.3,0.9l0.8-1.1c-0.9-0.7-1.9-1.1-3.1-1.1c-1.7,0-2.9,1-2.9,2.5c0,1.6,1,2.1,2.8,2.6
		c1.6,0.4,1.9,0.7,1.9,1.3c0,0.7-0.6,1.1-1.5,1.1c-1.1,0-1.9-0.4-2.7-1.1l-0.9,1.1c1,0.9,2.3,1.4,3.6,1.4c1.8,0,3.1-1,3.1-2.6
		c0-1.4-0.9-2.1-2.7-2.5C85.4,43.1,85,42.8,85,42.1 M78.7,39.9h-6.3v8.5h6.4v-1.3h-4.9v-2.3h4.3v-1.3h-4.3v-2.2h4.8V39.9z
		 M66.9,46.5l-2.6-6.6h-1.7l3.6,8.6h1.3l3.6-8.6h-1.6L66.9,46.5z M59.9,48.5h1.5v-8.5h-1.5V48.5z M55.8,41.3h2.7v-1.4h-6.9v1.4h2.7
		v7.2h1.5V41.3z M49,45.1h-2.9l1.5-3.4L49,45.1z M48.3,39.8h-1.4l-3.8,8.6h1.5l0.9-2.1h4l0.9,2.1H52L48.3,39.8z M39.7,46.5l-2.6-6.6
		h-1.7l3.6,8.6h1.3l3.6-8.6h-1.6L39.7,46.5z M33.5,44.2c0,1.7-1.2,3-2.9,3c-1.7,0-2.9-1.4-2.9-3.1c0-1.7,1.2-3,2.9-3
		C32.3,41.1,33.5,42.5,33.5,44.2 M35.1,44.2c0-2.4-1.8-4.4-4.5-4.4s-4.5,2-4.5,4.4c0,2.4,1.8,4.4,4.5,4.4
		C33.3,48.6,35.1,46.6,35.1,44.2 M23.1,45.8l-4.6-5.9h-1.4v8.5h1.5v-6.1l4.7,6.1h1.3v-8.5h-1.5V45.8z M13.7,45.8l-4.6-5.9H7.8v8.5
		h1.5v-6.1l4.7,6.1h1.3v-8.5h-1.5V45.8z M4.2,48.5h1.5v-8.5H4.2V48.5z"/>
</g>
</svg>
